# Blender v2.79 (sub 0) OBJ File: 'Level_test.blend'
# www.blender.org
g Medkit
v -0.194990 0.345036 0.614266
v -0.194990 0.345036 -0.614266
v 0.194990 0.345036 0.614266
v 0.194990 0.345036 -0.614266
v -0.614266 0.345036 -0.194990
v 0.614266 0.345036 -0.194990
v -0.614266 0.345036 0.194990
v 0.614266 0.345036 0.194990
v -0.108552 0.735016 0.524461
v -0.194990 0.706508 0.614266
v -0.108552 0.735016 -0.524461
v -0.194990 0.706508 -0.614266
v 0.108552 0.735016 0.524461
v 0.194990 0.706508 0.614266
v 0.108552 0.735016 -0.524461
v 0.194990 0.706508 -0.614266
v -0.540639 0.735016 -0.105185
v -0.614266 0.706508 -0.194990
v 0.540640 0.735016 -0.105185
v 0.614266 0.706508 -0.194990
v -0.540640 0.735016 0.105185
v -0.614266 0.706508 0.194990
v 0.540639 0.735016 0.105185
v 0.614266 0.706508 0.194990
v -0.836269 0.012185 0.836269
v -0.836269 0.064579 1.000000
v -1.000000 0.064579 0.836269
v -0.836269 0.599791 1.000000
v -0.836269 0.652185 0.836269
v -1.000000 0.599791 0.836269
v -0.836269 0.012185 -0.836269
v -1.000000 0.064579 -0.836269
v -0.836269 0.064579 -1.000000
v -0.836269 0.652185 -0.836269
v -0.836269 0.599791 -1.000000
v -1.000000 0.599791 -0.836269
v 0.836269 0.012185 0.836269
v 1.000000 0.064579 0.836269
v 0.836269 0.064579 1.000000
v 0.836269 0.652185 0.836269
v 0.836269 0.599791 1.000000
v 1.000000 0.599791 0.836269
v 0.836269 0.012185 -0.836269
v 0.836269 0.064579 -1.000000
v 1.000000 0.064579 -0.836269
v 0.836269 0.652185 -0.836269
v 1.000000 0.599791 -0.836269
v 0.836269 0.599791 -1.000000
v -0.836269 0.588185 0.836269
v -0.836269 0.588185 -0.836269
v 0.836269 0.588185 0.836269
v 0.836269 0.588185 -0.836269
v -0.836269 0.311148 1.000000
v -1.000000 0.311148 0.836269
v -0.836269 0.311148 -1.000000
v -1.000000 0.311148 -0.836269
v 1.000000 0.311148 -0.836269
v 0.836269 0.311148 -1.000000
v 0.836269 0.311148 1.000000
v 1.000000 0.311148 0.836269
v -0.836269 0.371074 1.000000
v -1.000000 0.371074 -0.836269
v 0.836269 0.371074 -1.000000
v 1.000000 0.371074 0.836269
v -1.000000 0.371074 0.836269
v -0.836269 0.371074 -1.000000
v 1.000000 0.371074 -0.836269
v 0.836269 0.371074 1.000000
v -0.787336 0.332875 0.941486
v -0.941486 0.332875 0.787336
v -0.787336 0.332875 -0.941486
v -0.941486 0.332875 -0.787336
v 0.941486 0.332875 -0.787336
v 0.787336 0.332875 -0.941486
v 0.787336 0.332875 0.941486
v 0.941486 0.332875 0.787336
v -0.787336 0.355084 0.941486
v -0.941486 0.355084 -0.787336
v 0.787336 0.355084 -0.941486
v 0.941486 0.355084 0.787336
v -0.941486 0.355084 0.787336
v -0.787336 0.355084 -0.941486
v 0.941486 0.355084 -0.787336
v 0.787336 0.355084 0.941486
v -0.836269 0.311148 1.000000
v -1.000000 0.311148 0.836269
v -0.836269 0.311148 -1.000000
v -1.000000 0.311148 -0.836269
v 1.000000 0.311148 -0.836269
v 0.836269 0.311148 -1.000000
v 0.836269 0.311148 1.000000
v 1.000000 0.311148 0.836269
vt 0.395525 0.397187
vt 0.395525 0.398856
vt 0.392845 0.398856
vt 0.392845 0.397187
vt 0.415336 0.399440
vt 0.412427 0.399440
vt 0.412427 0.396443
vt 0.415336 0.396443
vt 0.418609 0.396443
vt 0.418609 0.399221
vt 0.417613 0.399221
vt 0.417613 0.396443
vt 0.402368 0.399520
vt 0.399458 0.399520
vt 0.399458 0.396523
vt 0.402368 0.396523
vt 0.399176 0.399520
vt 0.396037 0.399520
vt 0.396037 0.396523
vt 0.399176 0.396523
vt 0.392616 0.399790
vt 0.395525 0.399790
vt 0.395525 0.402772
vt 0.392616 0.402772
vt 0.411377 0.397009
vt 0.411915 0.397009
vt 0.411915 0.405320
vt 0.411377 0.405320
vt 0.403400 0.394005
vt 0.406310 0.394005
vt 0.406310 0.403400
vt 0.403400 0.403400
vt 0.407956 0.396443
vt 0.410866 0.396443
vt 0.410866 0.405837
vt 0.407956 0.405837
vt 0.406592 0.394005
vt 0.407589 0.394005
vt 0.407589 0.403449
vt 0.406592 0.403449
vt 0.395212 0.403042
vt 0.395212 0.405821
vt 0.394216 0.405821
vt 0.394216 0.403042
vt 0.395754 0.399520
vt 0.392616 0.399520
vt 0.395755 0.396523
vt 0.392616 0.396523
vt 0.412144 0.396443
vt 0.412144 0.405886
vt 0.411148 0.396443
vt 0.411148 0.405886
vt 0.415336 0.402692
vt 0.412427 0.402692
vt 0.412427 0.399710
vt 0.415336 0.399710
vt 0.109561 0.134222
vt 0.106498 0.134222
vt 0.106498 0.112940
vt 0.109561 0.112940
vt 0.106173 0.154325
vt 0.103110 0.154325
vt 0.103110 0.147534
vt 0.106173 0.147534
vt 0.086319 0.149047
vt 0.086319 0.142256
vt 0.087177 0.142256
vt 0.087177 0.149047
vt 0.111484 0.152046
vt 0.108421 0.152046
vt 0.108421 0.145255
vt 0.111484 0.145255
vt 0.110031 0.112940
vt 0.113094 0.112940
vt 0.113094 0.134222
vt 0.110031 0.134222
vt 0.095671 0.134154
vt 0.096373 0.134086
vt 0.096373 0.136237
vt 0.105796 0.112873
vt 0.106498 0.110789
vt 0.105326 0.134154
vt 0.104624 0.136237
vt 0.104624 0.134086
vt 0.113795 0.112873
vt 0.113094 0.110789
vt 0.086925 0.112884
vt 0.086925 0.110789
vt 0.087621 0.112884
vt 0.072338 0.155123
vt 0.072338 0.155787
vt 0.070146 0.155123
vt 0.079814 0.112884
vt 0.079118 0.112884
vt 0.079814 0.110789
vt 0.072338 0.148332
vt 0.070146 0.148332
vt 0.072338 0.147667
vt 0.079814 0.134276
vt 0.086925 0.134276
vt 0.086925 0.136370
vt 0.079814 0.136370
vt 0.109561 0.110789
vt 0.090284 0.148711
vt 0.090284 0.155502
vt 0.088091 0.155502
vt 0.088091 0.148711
vt 0.101322 0.134086
vt 0.101322 0.136237
vt 0.105326 0.112873
vt 0.104624 0.112805
vt 0.113795 0.134154
vt 0.101322 0.110789
vt 0.104624 0.110789
vt 0.101322 0.112805
vt 0.099675 0.112805
vt 0.096373 0.112805
vt 0.096373 0.110789
vt 0.099675 0.110789
vt 0.095671 0.112873
vt 0.105796 0.134154
vt 0.755352 0.084972
vt 0.755352 0.224375
vt 0.709018 0.224375
vt 0.709018 0.084972
vt 0.114265 0.153801
vt 0.114265 0.132519
vt 0.115123 0.132519
vt 0.115123 0.153801
vt 0.112812 0.145255
vt 0.112812 0.152046
vt 0.111954 0.152046
vt 0.111954 0.145255
vt 0.115123 0.110789
vt 0.115123 0.132071
vt 0.114265 0.132071
vt 0.114265 0.110789
vt 0.070842 0.136370
vt 0.070146 0.134276
vt 0.070394 0.133650
vt 0.071050 0.135622
vt 0.075457 0.142921
vt 0.077650 0.142256
vt 0.078305 0.142494
vt 0.076240 0.143120
vt 0.078648 0.112884
vt 0.078648 0.134276
vt 0.078399 0.133650
vt 0.078399 0.113509
vt 0.099675 0.134086
vt 0.099675 0.136237
vt 0.082547 0.142256
vt 0.085849 0.142256
vt 0.085849 0.149047
vt 0.082547 0.149047
vt 0.082077 0.149047
vt 0.078775 0.149047
vt 0.078775 0.142256
vt 0.082077 0.142256
vt 0.110031 0.110789
vt 0.113094 0.136237
vt 0.110031 0.136237
vt 0.109561 0.136237
vt 0.106498 0.136237
vt 0.077650 0.150376
vt 0.075457 0.149712
vt 0.076240 0.149513
vt 0.078305 0.150139
vt 0.070842 0.110789
vt 0.077952 0.110789
vt 0.077744 0.111538
vt 0.071050 0.111538
vt 0.099966 0.113452
vt 0.099966 0.133488
vt 0.077952 0.136370
vt 0.077744 0.135622
vt 0.100264 0.113452
vt 0.099966 0.111554
vt 0.100264 0.111554
vt 0.100734 0.111554
vt 0.101031 0.111554
vt 0.101031 0.113452
vt 0.100734 0.113452
vt 0.100734 0.133488
vt 0.101031 0.133488
vt 0.101031 0.135513
vt 0.100734 0.135513
vt 0.100264 0.133488
vt 0.100264 0.135513
vt 0.099966 0.135513
vt 0.113282 0.145255
vt 0.113579 0.145255
vt 0.113579 0.151649
vt 0.113282 0.151649
vt 0.106941 0.153927
vt 0.106643 0.153927
vt 0.106643 0.147534
vt 0.106941 0.147534
vt 0.109077 0.136686
vt 0.111269 0.137351
vt 0.110486 0.137549
vt 0.108421 0.136924
vt 0.070146 0.112884
vt 0.070394 0.113509
vt 0.111269 0.144142
vt 0.109077 0.144806
vt 0.108421 0.144569
vt 0.110486 0.143943
vn 0.0000 1.0000 0.0000
vn 1.0000 0.0000 0.0000
vn -1.0000 0.0000 -0.0000
vn 0.0000 -1.0000 0.0000
vn 0.0000 0.0000 -1.0000
vn 0.0000 0.0000 1.0000
vn -0.3132 0.9497 0.0000
vn 0.0000 0.9531 -0.3026
vn 0.3132 0.9497 0.0000
vn 0.0000 0.9531 0.3026
vn 0.3611 0.9325 0.0000
vn -0.3611 0.9325 -0.0000
vn -0.2915 -0.9111 0.2915
vn -0.2915 0.9111 0.2915
vn -0.2915 -0.9111 -0.2915
vn -0.2915 0.9111 -0.2915
vn 0.2915 -0.9111 0.2915
vn 0.2915 0.9111 0.2915
vn 0.2915 -0.9111 -0.2915
vn 0.2915 0.9111 -0.2915
vn -0.3048 -0.9524 0.0000
vn -0.7071 0.0000 0.7071
vn -0.3048 0.9524 0.0000
vn -0.7071 0.0000 -0.7071
vn 0.0000 -0.9524 -0.3048
vn 0.0000 0.9524 -0.3048
vn 0.7071 0.0000 -0.7071
vn 0.3048 -0.9524 0.0000
vn 0.3048 0.9524 0.0000
vn 0.7071 0.0000 0.7071
vn 0.0000 -0.9524 0.3048
vn 0.0000 0.9524 0.3048
vn -0.1456 -0.9786 -0.1456
vn 0.1944 0.9615 -0.1944
vn -0.0000 -0.9646 0.2636
vn 0.1944 0.9615 0.1944
vn 0.2636 -0.9646 0.0000
vn 0.0000 0.9375 0.3481
vn -0.2636 -0.9646 -0.0000
vn 0.3481 0.9375 0.0000
vn -0.1944 0.9615 -0.1944
vn 0.1456 -0.9786 -0.1456
vn -0.1944 0.9615 0.1944
vn 0.1456 -0.9786 0.1456
vn -0.0000 0.9375 -0.3481
vn -0.1456 -0.9786 0.1456
vn -0.3481 0.9375 0.0000
vn 0.0000 -0.9646 -0.2636
s off
f 15/1/1 11/2/1 9/3/1 13/4/1
f 4/5/2 16/6/2 14/7/2 3/8/2
f 7/9/3 22/10/3 18/11/3 5/12/3
f 1/13/3 10/14/3 12/15/3 2/16/3
f 2/17/4 4/18/4 3/19/4 1/20/4
f 2/21/5 12/22/5 16/23/5 4/24/5
f 23/25/1 19/26/1 17/27/1 21/28/1
f 8/29/6 24/30/6 22/31/6 7/32/6
f 5/33/5 18/34/5 20/35/5 6/36/5
f 6/37/4 8/38/4 7/39/4 5/40/4
f 6/41/2 20/42/2 24/43/2 8/44/2
f 9/3/7 11/2/7 12/45/7 10/46/7
f 11/2/8 15/1/8 16/47/8 12/45/8
f 15/1/9 13/4/9 14/48/9 16/47/9
f 13/4/10 9/3/10 10/46/10 14/48/10
f 17/27/8 19/26/8 20/49/8 18/50/8
f 19/26/11 23/25/11 24/51/11 20/49/11
f 23/25/10 21/28/10 22/52/10 24/51/10
f 21/28/12 17/27/12 18/50/12 22/52/12
f 3/53/6 14/54/6 10/55/6 1/56/6
f 68/57/6 41/58/6 28/59/6 61/60/6
f 67/61/2 47/62/2 42/63/2 64/64/2
f 34/65/2 29/66/2 49/67/2 50/68/2
f 65/69/3 30/70/3 36/71/3 62/72/3
f 66/73/5 35/74/5 48/75/5 63/76/5
f 25/77/13 26/78/13 27/79/13
f 28/59/14 29/80/14 30/81/14
f 31/82/15 32/83/15 33/84/15
f 34/85/16 35/74/16 36/86/16
f 37/87/17 38/88/17 39/89/17
f 40/90/18 41/91/18 42/92/18
f 43/93/19 44/94/19 45/95/19
f 46/96/20 47/97/20 48/98/20
f 31/99/21 25/100/21 27/101/21 32/102/21
f 61/60/22 28/59/22 30/81/22 65/103/22
f 29/104/23 34/105/23 36/106/23 30/107/23
f 55/108/24 33/84/24 32/83/24 56/109/24
f 43/110/25 31/82/25 33/84/25 44/111/25
f 34/85/26 46/112/26 48/75/26 35/74/26
f 57/113/27 45/114/27 44/111/27 58/115/27
f 37/87/28 43/93/28 45/95/28 38/88/28
f 46/96/29 40/90/29 42/92/29 47/97/29
f 59/116/30 39/117/30 38/118/30 60/119/30
f 25/77/31 37/120/31 39/117/31 26/78/31
f 40/121/32 29/80/32 28/59/32 41/58/32
f 31/99/4 43/93/4 37/87/4 25/100/4
f 52/122/1 50/123/1 49/124/1 51/125/1
f 29/126/5 40/127/5 51/128/5 49/129/5
f 40/130/3 46/131/3 52/132/3 51/133/3
f 46/134/6 34/135/6 50/136/6 52/137/6
f 62/138/33 66/139/33 82/140/33 78/141/33
f 57/142/34 58/143/34 74/144/34 73/145/34
f 68/146/35 61/147/35 77/148/35 84/149/35
f 26/78/22 53/150/22 54/151/22 27/79/22
f 33/84/5 55/108/5 58/115/5 44/111/5
f 27/152/3 54/153/3 56/154/3 32/155/3
f 45/156/2 57/157/2 60/158/2 38/159/2
f 39/117/6 59/116/6 53/150/6 26/78/6
f 35/74/24 66/73/24 62/160/24 36/86/24
f 47/161/27 67/162/27 63/76/27 48/75/27
f 41/58/30 68/57/30 64/163/30 42/164/30
f 59/165/36 60/166/36 76/167/36 75/168/36
f 67/169/37 64/170/37 80/171/37 83/172/37
f 53/150/38 59/116/38 75/173/38 69/174/38
f 65/175/39 62/138/39 78/141/39 81/176/39
f 60/166/40 57/142/40 73/145/40 76/167/40
f 84/177/30 75/173/30 76/178/30 80/179/30
f 83/180/27 73/181/27 74/182/27 79/183/27
f 82/184/24 71/185/24 72/186/24 78/187/24
f 69/174/22 77/188/22 81/189/22 70/190/22
f 71/185/5 82/184/5 79/183/5 74/182/5
f 70/191/3 81/192/3 78/193/3 72/194/3
f 73/195/2 83/196/2 80/197/2 76/198/2
f 75/173/6 84/177/6 77/188/6 69/174/6
f 55/199/41 56/200/41 72/201/41 71/202/41
f 63/203/42 67/169/42 83/172/42 79/204/42
f 54/205/43 53/206/43 69/207/43 70/208/43
f 64/170/44 68/146/44 84/149/44 80/171/44
f 58/115/45 55/108/45 71/185/45 74/182/45
f 61/147/46 65/175/46 81/176/46 77/148/46
f 56/200/47 54/205/47 70/208/47 72/201/47
f 66/139/48 63/203/48 79/204/48 82/140/48
l 91 92
l 89 90
l 87 88
l 85 86
l 87 90
l 86 88
l 89 92
l 91 85
